<svg width="313" height="203" viewBox="0 0 313 203" fill="none" xmlns="http://www.w3.org/2000/svg">
<rect width="313" height="203" rx="7" fill="#EAF2FF"/>
<mask id="mask0_505_4532" style="mask-type:alpha" maskUnits="userSpaceOnUse" x="140" y="88" width="33" height="27">
<path d="M151.962 97.1217C151.962 98.9626 150.53 100.455 148.762 100.455C146.995 100.455 145.563 98.9626 145.563 97.1217C145.563 95.2808 146.995 93.7885 148.762 93.7885C150.53 93.7885 151.962 95.2808 151.962 97.1217Z" fill="#B4DBFF"/>
<path fill-rule="evenodd" clip-rule="evenodd" d="M140.5 91.5004C140.5 89.6596 141.933 88.1672 143.7 88.1672H169.299C171.067 88.1672 172.499 89.6596 172.499 91.5004V111.5C172.499 113.34 171.067 114.833 169.299 114.833H167.187C167.18 114.833 167.173 114.833 167.166 114.833H144.43C144.424 114.833 144.418 114.833 144.412 114.833H143.7C141.933 114.833 140.5 113.34 140.5 111.5V91.5004ZM143.7 90.6671H169.299C169.741 90.6671 170.099 91.0402 170.099 91.5004V101.887L163.147 94.8337L151.32 106.833L147.835 103.298L142.9 108.305V91.5004C142.9 91.0402 143.259 90.6671 143.7 90.6671Z" fill="#B4DBFF"/>
</mask>
<g mask="url(#mask0_505_4532)">
<rect x="140.5" y="85.4998" width="31.9987" height="31.9987" fill="#B4DBFF"/>
</g>
</svg>
